<svg id="visual" viewBox="0 0 900 600" width="900" height="600" xmlns="http://www.w3.org/2000/svg" xmlns:xlink="http://www.w3.org/1999/xlink" version="1.1"><rect x="0" y="0" width="900" height="600" fill="#002233"></rect><path d="M0 464L10 471C20 478 40 492 60 495C80 498 100 490 120 481.3C140 472.7 160 463.3 180 458C200 452.7 220 451.3 240 450.3C260 449.3 280 448.7 300 453.8C320 459 340 470 360 469.2C380 468.3 400 455.7 420 460.7C440 465.7 460 488.3 480 490.2C500 492 520 473 540 470.5C560 468 580 482 600 488C620 494 640 492 660 493.7C680 495.3 700 500.7 720 502.2C740 503.7 760 501.3 780 500.2C800 499 820 499 840 496.5C860 494 880 489 890 486.5L900 484L900 601L890 601C880 601 860 601 840 601C820 601 800 601 780 601C760 601 740 601 720 601C700 601 680 601 660 601C640 601 620 601 600 601C580 601 560 601 540 601C520 601 500 601 480 601C460 601 440 601 420 601C400 601 380 601 360 601C340 601 320 601 300 601C280 601 260 601 240 601C220 601 200 601 180 601C160 601 140 601 120 601C100 601 80 601 60 601C40 601 20 601 10 601L0 601Z" fill="#0066FF" stroke-linecap="round" stroke-linejoin="miter"></path></svg>